<?xml version="1.0" encoding="iso-8859-1"?>
<!-- Generator: Adobe Illustrator 19.0.0, SVG Export Plug-In . SVG Version: 6.00 Build 0)  -->
<svg version="1.1" id="Capa_1" xmlns="http://www.w3.org/2000/svg" xmlns:xlink="http://www.w3.org/1999/xlink" x="0px" y="0px"
	 viewBox="0 0 426.667 426.667" style="enable-background:new 0 0 426.667 426.667;" xml:space="preserve">
<g>
	<g>
		<path d="M330.704,170.667H95.963C78.405,170.667,64,184.951,64,202.572v192.19c0,17.593,14.31,31.905,31.963,31.905h234.742
			c17.557,0,31.963-14.284,31.963-31.905v-192.19C362.667,184.979,348.357,170.667,330.704,170.667z M320,384H106.667V213.333H320
			V384z"/>
	</g>
</g>
<g>
	<g>
		<path d="M217.082,0h-7.498c-56.815,0-102.918,46.172-102.918,102.978v81.645h42.667v-81.645c0-33.256,27.014-60.311,60.251-60.311
			h7.498c33.219,0,60.251,27.037,60.251,60.325V128H320v-25.009C320,46.141,273.867,0,217.082,0z"/>
	</g>
</g>
<g>
</g>
<g>
</g>
<g>
</g>
<g>
</g>
<g>
</g>
<g>
</g>
<g>
</g>
<g>
</g>
<g>
</g>
<g>
</g>
<g>
</g>
<g>
</g>
<g>
</g>
<g>
</g>
<g>
</g>
</svg>
